<?xml version="1.0" encoding="UTF-8"?>
<svg version="1.1" xmlns="http://www.w3.org/2000/svg" width="472" height="103">
<path d="M0 0 C3.0276548 1.69950981 5.99337954 3.47573344 8.95214844 5.29248047 C11.0990239 6.57937257 13.2461578 7.86583363 15.39355469 9.15185547 C16.41980957 9.77253906 17.44606445 10.39322266 18.50341797 11.03271484 C21.93463231 13.09512208 25.40210093 15.07698978 28.88964844 17.04248047 C29.94023438 17.64447266 30.99082031 18.24646484 32.07324219 18.86669922 C33.80992017 19.86117148 35.54766773 20.85385479 37.29248047 21.83398438 C39.35348071 22.9945429 41.40325681 24.17320331 43.45214844 25.35498047 C44.08064697 25.70343018 44.70914551 26.05187988 45.35668945 26.41088867 C49.59813174 28.88752089 52.01006262 31.4073974 54.32714844 35.72998047 C55.18304055 39.45681778 54.77493292 42.79634803 53.109375 46.26904297 C51.09673146 49.04814529 49.32412918 50.31129356 46.37402344 52.04248047 C45.37338867 52.63665771 44.37275391 53.23083496 43.34179688 53.84301758 C41.7257959 54.77706421 41.7257959 54.77706421 40.07714844 55.72998047 C38.96629883 56.38426025 37.85544922 57.03854004 36.7109375 57.71264648 C28.26190685 62.66798261 19.74015428 67.49621638 11.1940918 72.28198242 C4.9461426 75.7857774 -1.19187773 79.41521081 -7.24707031 83.24169922 C-13.01658873 86.78145206 -13.01658873 86.78145206 -16.86035156 86.47998047 C-18.25253906 86.10873047 -18.25253906 86.10873047 -19.67285156 85.72998047 C-21.14853831 82.77860697 -20.8164932 80.13131792 -20.83398438 76.83691406 C-20.83894928 76.12770813 -20.84391418 75.4185022 -20.84902954 74.68780518 C-20.863667 72.33466629 -20.87045787 69.98159496 -20.87597656 67.62841797 C-20.88172934 65.99134316 -20.88748706 64.35426838 -20.89324951 62.7171936 C-20.9037658 59.27890713 -20.90960348 55.84064406 -20.91308594 52.40234375 C-20.9185539 48.01096333 -20.94254259 43.61989561 -20.97105789 39.2286129 C-20.98975193 35.84326296 -20.99489359 32.45798706 -20.99642181 29.07258987 C-20.99943664 27.4547722 -21.00742541 25.83695547 -21.02060699 24.21918869 C-21.14058412 8.35413059 -21.14058412 8.35413059 -17.67285156 1.72998047 C-12.42544293 -3.35344664 -6.27839356 -2.98321185 0 0 Z " fill="#E2CDD6" transform="translate(35.6728515625,8.27001953125)"/>
<path d="M0 0 C14 0 14 0 18.25 4.125 C19.53099472 6.06320071 20.77747442 8.02439866 22 10 C23.34895602 11.91896601 24.72733892 13.81449156 26.10839844 15.71044922 C28.10185988 18.45303249 30.04978913 21.22654437 32 24 C36.62184152 19.72566536 40.12636721 14.88008687 43.75 9.75 C44.91078539 8.11931243 46.07220906 6.48907896 47.234375 4.859375 C47.74194336 4.14233398 48.24951172 3.42529297 48.77246094 2.68652344 C50 1 50 1 51 0 C55.62 0 60.24 0 65 0 C65 19.14 65 38.28 65 58 C59.39 58 53.78 58 48 58 C47.505 45.625 47.505 45.625 47 33 C42.4505574 39.46622062 42.4505574 39.46622062 38 46 C34.14011087 47.18915776 30.85379009 47.19135984 27 46 C23.61770538 42.3715257 21.33610977 38.35365912 19 34 C18.505 33.505 18.505 33.505 18 33 C17.67 41.25 17.34 49.5 17 58 C11.39 58 5.78 58 0 58 C0 38.86 0 19.72 0 0 Z " fill="#4C4748" transform="translate(114,24)"/>
<path d="M0 0 C5.28 0 10.56 0 16 0 C16 14.52 16 29.04 16 44 C18.97 44.495 18.97 44.495 22 45 C22.495 50.94 22.495 50.94 23 57 C18.13166092 60.24555938 12.69304349 59.60000213 7 59 C4.41982571 57.94028556 3.08052274 56.90219222 1 55 C-0.0725 55.66 -1.145 56.32 -2.25 57 C-8.14253281 59.93056694 -14.86219575 60.33914392 -21.1484375 58.3046875 C-26.85827522 55.33756659 -31.20222205 50.09150816 -33.48828125 44.10546875 C-35.39281207 36.26926944 -34.55100809 29.16578779 -30.5390625 22.1953125 C-26.90893016 17.01730648 -23.33034657 14.03931078 -17.125 12.5 C-11.4689384 11.62651037 -6.12870186 12.43564907 -1 15 C-1.01160156 14.00097656 -1.02320313 13.00195312 -1.03515625 11.97265625 C-1.04417969 10.68230469 -1.05320312 9.39195313 -1.0625 8.0625 C-1.07410156 6.77472656 -1.08570313 5.48695312 -1.09765625 4.16015625 C-1 1 -1 1 0 0 Z M-14.9375 27.875 C-17.63627151 31.96404775 -17.81257726 35.21862431 -17 40 C-15.97720942 42.4459928 -15.37935687 43.71548234 -13.25 45.3125 C-10.07357864 46.28307319 -8.16398262 45.98874457 -5 45 C-2.55351156 42.87541793 -1.25427516 41.28434901 -0.6171875 38.06640625 C-0.40998706 34.4127718 -0.82220845 32.33424812 -2.5625 29.0625 C-6.77555941 25.49760358 -10.23084638 24.87075301 -14.9375 27.875 Z " fill="#4B4748" transform="translate(312,24)"/>
<path d="M0 0 C1.87939453 -0.34057617 1.87939453 -0.34057617 4.1328125 -0.29296875 C4.93847656 -0.28330078 5.74414062 -0.27363281 6.57421875 -0.26367188 C7.83685547 -0.2259668 7.83685547 -0.2259668 9.125 -0.1875 C9.97449219 -0.17396484 10.82398438 -0.16042969 11.69921875 -0.14648438 C13.79974837 -0.11108219 15.89995293 -0.05727401 18 0 C20.8791387 6.28169235 23.45039022 12.63261854 25.85546875 19.109375 C26.20257401 20.03921204 26.54967926 20.96904907 26.90730286 21.92706299 C27.63388951 23.87613467 28.35902534 25.82574778 29.08276367 27.77587891 C30.19024405 30.7573874 31.30482048 33.73617844 32.41992188 36.71484375 C33.12803312 38.61702787 33.83573002 40.5193663 34.54296875 42.421875 C34.87523972 43.30840759 35.20751068 44.19494019 35.54985046 45.1083374 C38.58498519 53.31931742 38.58498519 53.31931742 39 57 C38 58 38 58 36.23413086 58.11352539 C35.48526611 58.10828857 34.73640137 58.10305176 33.96484375 58.09765625 C33.15595703 58.09443359 32.34707031 58.09121094 31.51367188 58.08789062 C30.66353516 58.07951172 29.81339844 58.07113281 28.9375 58.0625 C28.08349609 58.05798828 27.22949219 58.05347656 26.34960938 58.04882812 C24.23304337 58.03700373 22.11651315 58.01906769 20 58 C19.01 55.69 18.02 53.38 17 51 C11.39 50.67 5.78 50.34 0 50 C-0.33 51.65 -0.66 53.3 -1 55 C-1.66 55.99 -2.32 56.98 -3 58 C-4.87939453 58.34057617 -4.87939453 58.34057617 -7.1328125 58.29296875 C-7.93847656 58.28330078 -8.74414062 58.27363281 -9.57421875 58.26367188 C-10.41597656 58.23853516 -11.25773437 58.21339844 -12.125 58.1875 C-13.39923828 58.16719727 -13.39923828 58.16719727 -14.69921875 58.14648438 C-16.79974837 58.11108219 -18.89995293 58.05727401 -21 58 C-20.42044314 51.54801172 -18.33000656 45.9511581 -16.03515625 39.921875 C-15.64178574 38.8734845 -15.24841522 37.82509399 -14.84312439 36.74493408 C-14.01346852 34.53831483 -13.18035482 32.33299295 -12.34399414 30.12890625 C-11.06269347 26.75051012 -9.79321176 23.36784963 -8.52539062 19.984375 C-7.71683746 17.83828097 -6.90761574 15.69243867 -6.09765625 13.546875 C-5.71738785 12.53437683 -5.33711945 11.52187866 -4.94532776 10.47869873 C-4.58833298 9.54052307 -4.2313382 8.60234741 -3.86352539 7.63574219 C-3.55121475 6.81080261 -3.23890411 5.98586304 -2.91712952 5.13592529 C-2 3 -2 3 0 0 Z M8 24 C7.01 27.96 6.02 31.92 5 36 C7.31 36 9.62 36 12 36 C11.49202991 31.6822542 10.80317221 27.96697886 9 24 C8.67 24 8.34 24 8 24 Z " fill="#CBD0E3" transform="translate(401,24)"/>
<path d="M0 0 C5.28 0 10.56 0 16 0 C23 15.20689655 23 15.20689655 23 21 C23.66 21 24.32 21 25 21 C25.0825 20.113125 25.165 19.22625 25.25 18.3125 C27.29856115 3.70143885 27.29856115 3.70143885 31 0 C33.69654854 -0.07319621 36.36691458 -0.09242537 39.0625 -0.0625 C39.82111328 -0.05798828 40.57972656 -0.05347656 41.36132812 -0.04882812 C43.24091871 -0.0370068 45.12046899 -0.01907078 47 0 C46.39806716 5.64851153 44.93765788 10.60059347 43.015625 15.93359375 C42.71815369 16.77036148 42.42068237 17.60712921 42.11419678 18.46925354 C41.48544156 20.23112125 40.85323681 21.99176134 40.21777344 23.7512207 C39.25563821 26.42184984 38.31083968 29.09818347 37.3671875 31.77539062 C36.75104495 33.4951664 36.13389012 35.2145799 35.515625 36.93359375 C35.23833557 37.72342148 34.96104614 38.51324921 34.675354 39.32701111 C31.63540297 47.65091575 27.55990678 55.05760933 20 60 C14.87953733 62.04818507 10.42923376 62.28082244 5 62 C4 61 4 61 3.8671875 57.875 C3.86976563 56.59625 3.87234375 55.3175 3.875 54 C3.87242187 52.72125 3.86984375 51.4425 3.8671875 50.125 C4 47 4 47 5 46 C6.51165654 45.60851239 8.03469632 45.26027543 9.5625 44.9375 C10.38878906 44.76089844 11.21507812 44.58429688 12.06640625 44.40234375 C13.02353516 44.20318359 13.02353516 44.20318359 14 44 C15.27071144 41.04988507 14.94114935 39.81401658 13.9519043 36.68774414 C13.42087365 35.38213187 12.87751163 34.08149106 12.32421875 32.78515625 C12.03899857 32.09240097 11.75377838 31.39964569 11.45991516 30.68589783 C10.54627884 28.47356993 9.61722755 26.26810721 8.6875 24.0625 C8.07252927 22.58181107 7.45858528 21.10069527 6.84570312 19.61914062 C5.71560382 16.8905927 4.57934161 14.16479162 3.4362793 11.44165039 C2.96230713 10.30590576 2.48833496 9.17016113 2 8 C1.40989136 6.62799438 1.40989136 6.62799438 0.80786133 5.22827148 C0 3 0 3 0 0 Z " fill="#4B4647" transform="translate(331,38)"/>
<path d="M0 0 C4.43239566 3.8918596 5.85230366 8.80949252 6.24291992 14.6027832 C6.23881104 15.90562256 6.23470215 17.20846191 6.23046875 18.55078125 C6.23001053 19.25019333 6.22955231 19.94960541 6.2290802 20.67021179 C6.22607725 22.13668533 6.21825019 23.60315623 6.20581055 25.06958008 C6.18741271 27.32319297 6.1853021 29.57639754 6.18554688 31.83007812 C6.14763617 42.85236383 6.14763617 42.85236383 5 44 C2.3013095 44.07325436 -0.36502556 44.09222351 -3.0625 44.0625 C-5.681875 44.041875 -8.30125 44.02125 -11 44 C-11.495 28.655 -11.495 28.655 -12 13 C-18.32917961 12.47825081 -18.32917961 12.47825081 -21 14 C-22.07955212 17.23865635 -22.20441741 19.79155838 -22.31640625 23.19921875 C-22.35830078 24.40771484 -22.40019531 25.61621094 -22.44335938 26.86132812 C-22.48267578 28.12396484 -22.52199219 29.38660156 -22.5625 30.6875 C-22.60568359 31.96173828 -22.64886719 33.23597656 -22.69335938 34.54882812 C-22.79954789 37.69908727 -22.90028813 40.8495292 -23 44 C-28.28 44 -33.56 44 -39 44 C-40.06066736 29.24856469 -39.84278122 14.76109336 -39 0 C-36.37472811 -0.05382106 -33.75055287 -0.09358313 -31.125 -0.125 C-30.37863281 -0.14175781 -29.63226563 -0.15851562 -28.86328125 -0.17578125 C-26.90805539 -0.1933959 -24.95257979 -0.10320189 -23 0 C-22.34 0.66 -21.68 1.32 -21 2 C-20.278125 1.525625 -19.55625 1.05125 -18.8125 0.5625 C-12.57493143 -2.90281587 -6.63516313 -2.06836875 0 0 Z " fill="#4C4746" transform="translate(270,38)"/>
<path d="M0 0 C5.1202019 5.18189108 8.26512551 9.73458467 8.375 17.25 C8.21354963 23.92328184 6.6863111 29.06692964 2.12890625 34.04296875 C-4.76219362 40.36089585 -10.2639151 41.47925316 -19.5546875 41.3046875 C-26.42183535 40.69738871 -30.23181421 38.08152961 -34.875 33.125 C-39.92253624 26.87019427 -40.78990605 20.87398412 -40 13 C-38.08421373 6.72047834 -34.56816815 1.35741249 -29.04296875 -2.29296875 C-19.56862896 -7.31092692 -8.41162972 -7.23791394 0 0 Z M-24.21484375 13.1484375 C-25.67064748 16.58152689 -25.32166881 19.56804231 -24 23 C-21.40959979 25.96045738 -19.87129965 26.85478339 -16 27.5 C-12.30796584 26.88466097 -10.65983132 25.58383614 -8 23 C-6.54852097 20.09704195 -6.62760975 18.22738221 -7 15 C-8.8826099 11.8230958 -10.27127091 9.52280114 -13.9375 8.4140625 C-18.57606304 8.04508589 -21.42139177 9.15238077 -24.21484375 13.1484375 Z " fill="#4B4647" transform="translate(221,42)"/>
<path d="M0 0 C5.61 0 11.22 0 17 0 C18 1 18 1 18.12025452 3.28419495 C18.1169236 4.79976234 18.1169236 4.79976234 18.11352539 6.34594727 C18.11344986 7.4870546 18.11337433 8.62816193 18.11329651 9.80384827 C18.10813522 11.0454924 18.10297394 12.28713654 18.09765625 13.56640625 C18.0962413 14.83016586 18.09482635 16.09392548 18.09336853 17.39598083 C18.08870582 20.76124889 18.0797148 24.1264499 18.06866455 27.49169922 C18.05844846 30.9234967 18.05387049 34.35530109 18.04882812 37.78710938 C18.0377738 44.52476064 18.02049637 51.26237111 18 58 C12.06 58 6.12 58 0 58 C0 38.86 0 19.72 0 0 Z " fill="#DAC6CE" transform="translate(441,24)"/>
<path d="M0 0 C5.4705493 0.49040473 9.03692034 2.50622734 13.5625 5.375 C14.20896484 5.77460937 14.85542969 6.17421875 15.52148438 6.5859375 C16.78003326 7.36436855 18.03246003 8.15280571 19.27783203 8.95214844 C21.15821811 10.14291571 21.15821811 10.14291571 23.96484375 11.3515625 C26 13 26 13 26.68359375 16.4296875 C26 20 26 20 23.47265625 22.2578125 C21.78462891 23.18207031 21.78462891 23.18207031 20.0625 24.125 C19.47073975 24.45556396 18.87897949 24.78612793 18.26928711 25.12670898 C16.52124134 26.09968904 14.76075949 27.05022095 13 28 C12.1234375 28.54527344 11.246875 29.09054688 10.34375 29.65234375 C6.75293418 31.87200901 4.79624621 33.01421868 0.5 32.9375 C-2 32 -2 32 -3 30 C-3.27081495 25.7137379 -3.2316306 21.41884638 -3.25 17.125 C-3.270625 15.92746094 -3.29125 14.72992188 -3.3125 13.49609375 C-3.31765625 12.34496094 -3.3228125 11.19382812 -3.328125 10.0078125 C-3.34214355 8.42444092 -3.34214355 8.42444092 -3.35644531 6.80908203 C-2.95770373 3.6666706 -2.10675558 2.31325934 0 0 Z " fill="#454242" transform="translate(18,62)"/>
<path d="M0 0 C4.36843537 1.59841218 8.34502737 3.76561171 12.375 6.0625 C13.06819336 6.45735596 13.76138672 6.85221191 14.47558594 7.2590332 C15.92400922 8.08700808 17.3712613 8.91703489 18.81738281 9.74902344 C20.95224077 10.97262659 23.09678083 12.17783072 25.2421875 13.3828125 C26.57878469 14.14989333 27.91474777 14.91808038 29.25 15.6875 C29.8692334 16.03111572 30.4884668 16.37473145 31.12646484 16.72875977 C35.3252857 19.18727223 37.69917669 21.72304378 40 26 C40.85263754 29.71266584 40.44597812 33.05356687 38.81079102 36.52368164 C36.68519237 39.43051014 34.69511972 40.74918575 31.58984375 42.55859375 C30.51669922 43.19216797 29.44355469 43.82574219 28.33789062 44.47851562 C27.21576172 45.12498047 26.09363281 45.77144531 24.9375 46.4375 C23.84244141 47.08009766 22.74738281 47.72269531 21.61914062 48.38476562 C19.45363467 49.65517859 17.28490041 50.92010653 15.11279297 52.17919922 C11.34922138 54.38066721 7.63366562 56.65601738 3.92797852 58.95336914 C2 60 2 60 0 60 C-0.28100586 57.69506836 -0.28100586 57.69506836 0 55 C1.87670898 53.33422852 1.87670898 53.33422852 4.49609375 51.87890625 C5.44806641 51.33556641 6.40003906 50.79222656 7.38085938 50.23242188 C8.38955078 49.68134766 9.39824219 49.13027344 10.4375 48.5625 C12.3959202 47.46210374 14.35296747 46.35926024 16.30859375 45.25390625 C17.74114502 44.44590576 17.74114502 44.44590576 19.20263672 43.62158203 C27.00703793 39.32550652 27.00703793 39.32550652 33 33 C33.41812437 29.23688065 33.42647845 26.8326484 31.6875 23.4375 C28.50675265 20.55263612 25.22533392 18.79059212 21.43359375 16.8046875 C17.20688229 14.5831395 13.02961568 12.2907224 8.875 9.9375 C8.11614502 9.52604736 7.35729004 9.11459473 6.57543945 8.69067383 C1.22373999 5.63334273 1.22373999 5.63334273 0.0078125 2.19140625 C0.00523438 1.46824219 0.00265625 0.74507812 0 0 Z " fill="#FDA28E" transform="translate(50,18)"/>
<path d="M0 0 C2.30708116 1.19145974 4.53110051 2.47138526 6.7578125 3.80664062 C7.91990234 4.45246094 7.91990234 4.45246094 9.10546875 5.11132812 C11.15510402 6.31869705 12.99875027 7.45472129 14.7578125 9.05664062 C15.2578125 11.88476563 15.2578125 11.88476563 14.7578125 14.05664062 C12.48573044 12.93410603 10.21513605 11.80872542 7.9453125 10.68164062 C7.30271484 10.36453125 6.66011719 10.04742187 5.99804688 9.72070312 C3.12586789 8.29205451 0.4310304 6.83878589 -2.2421875 5.05664062 C-6.34199402 4.41889294 -7.96511497 4.88935155 -11.5546875 7.05664062 C-14.92356328 10.17502109 -14.99555242 13.66225113 -15.2421875 18.05664062 C-15.30327744 20.89941484 -15.24481816 23.7303685 -15.1640625 26.57226562 C-15.13683653 28.16860003 -15.11083009 29.76495563 -15.0859375 31.36132812 C-15.04253773 33.84596483 -14.99152906 36.32948153 -14.91992188 38.81347656 C-14.8533662 41.23325062 -14.81858736 43.65179385 -14.7890625 46.07226562 C-14.76011902 46.8139801 -14.73117554 47.55569458 -14.70135498 48.31988525 C-14.69042969 50.42480469 -14.69042969 50.42480469 -15.2421875 54.05664062 C-17.77050781 56.55566406 -17.77050781 56.55566406 -20.2421875 58.05664062 C-20.31854948 51.36726228 -20.37091797 44.67799729 -20.40698242 37.98828125 C-20.42202466 35.71480102 -20.44246353 33.44134959 -20.46850586 31.16796875 C-20.50508971 27.89120351 -20.52195998 24.61482357 -20.53515625 21.33789062 C-20.55838203 19.82491394 -20.55838203 19.82491394 -20.58207703 18.28137207 C-20.5835217 12.15828625 -19.85889856 7.62008405 -17.2421875 2.05664062 C-12.20510701 -2.8230311 -6.18943839 -2.60409298 0 0 Z " fill="#C3CDE4" transform="translate(35.2421875,7.943359375)"/>
<path d="M0 0 C0 1.65 0 3.3 0 5 C-1.98 5.66 -3.96 6.32 -6 7 C-6 5.68 -6 4.36 -6 3 C-1.82142857 0 -1.82142857 0 0 0 Z " fill="#B6BFD4" transform="translate(50,74)"/>
</svg>
